<?xml version="1.0" ?><svg height="24px" version="1.1" viewBox="0 0 24 24" width="24px" xmlns="http://www.w3.org/2000/svg" xmlns:sketch="http://www.bohemiancoding.com/sketch/ns" xmlns:xlink="http://www.w3.org/1999/xlink"><title/><desc/><defs/><g fill="none" fill-rule="evenodd" id="miu" stroke="none" stroke-width="1"><g id="Artboard-1" transform="translate(-467.000000, -119.000000)"><g id="slice" transform="translate(215.000000, 119.000000)"/><path d="M479.5,142 C485.851275,142 491,136.851275 491,130.5 C491,124.148725 485.851275,119 479.5,119 C473.148725,119 468,124.148725 468,130.5 C468,136.851275 473.148725,142 479.5,142 Z M480.897191,125.825419 L475.048407,133.311521 L474.9991,135.811035 L477.412439,135.158506 L483.261223,127.672404 L482.473213,127.056742 L476.81051,134.304671 L475.922592,134.629019 L476.022499,133.68901 L481.685202,126.441081 L480.897191,125.825419 Z M483.221656,124.404158 C482.820166,124.09048 481.817984,124.576508 481.817984,124.576508 L481.202322,125.364519 L483.566355,127.211503 L484.182016,126.423492 C484.182016,126.423492 484.413208,125.335101 484.009667,125.01982 L483.221656,124.404158 Z" fill="#000000" id="circle-edit-pen-pencil-glyph"/></g></g></svg>